<svg width="28" height="29" viewBox="0 0 28 29" fill="none" xmlns="http://www.w3.org/2000/svg">
<rect x="1" y="2.96582" width="26" height="25.0345" rx="2" stroke="black" stroke-width="2"/>
<path d="M8 4.86207V1" stroke="black" stroke-width="2" stroke-linecap="round"/>
<path d="M21 4.86207V1" stroke="black" stroke-width="2" stroke-linecap="round"/>
<path d="M1 8.72461H27" stroke="black" stroke-width="2" stroke-linecap="round"/>
<rect x="5" y="11.6211" width="4" height="3.86207" rx="1" fill="black"/>
<rect x="5" y="16.4482" width="4" height="3.86207" rx="1" fill="black"/>
<rect x="5" y="22.2412" width="4" height="3.86207" rx="1" fill="black"/>
<rect x="12" y="11.6211" width="4" height="3.86207" rx="1" fill="black"/>
<rect x="12" y="16.4482" width="4" height="3.86207" rx="1" fill="black"/>
<rect x="12" y="22.2412" width="4" height="3.86207" rx="1" fill="black"/>
<rect x="19" y="11.6211" width="4" height="3.86207" rx="1" fill="black"/>
<rect x="19" y="16.4482" width="4" height="3.86207" rx="1" fill="black"/>
<rect x="19" y="22.2412" width="4" height="3.86207" rx="1" fill="black"/>
</svg>
