<svg width="54" height="54" viewBox="0 0 54 54" fill="none" xmlns="http://www.w3.org/2000/svg">
<circle cx="27" cy="27" r="27" fill="#FF6B6B"/>
<path d="M26.233 19.593C23.596 20.6039 20.6345 23.6366 23.0686 28.6913C24.2857 31.2187 28.8699 33.2405 32.5617 29.1968M24.6508 16.0547C20.959 17.0656 15.392 23.3333 19.3769 30.2077C24.1234 38.3963 35.1987 34.7569 37.3082 29.1968M29.3973 28.6913H41M23.596 13.2354L27.8152 11L34.1439 20.6039L28.8699 23.1312L23.596 13.2354Z" stroke="white" stroke-width="2" stroke-linecap="round" stroke-linejoin="round"/>
<path d="M31.6667 26L30 22.6667L33.3333 21L35 24.3333L31.6667 26Z" stroke="white" stroke-width="2" stroke-linecap="round" stroke-linejoin="round"/>
<path d="M23 19L25.2222 23L28 21.5L25.2222 18L23 19Z" stroke="white" stroke-width="2" stroke-linecap="round" stroke-linejoin="round"/>
<path d="M25 35V39" stroke="white" stroke-width="2" stroke-linecap="round" stroke-linejoin="round"/>
<path d="M30 35V39" stroke="white" stroke-width="2" stroke-linecap="round" stroke-linejoin="round"/>
<path d="M36.4314 40H17.5686L14 45H40L36.4314 40Z" stroke="white" stroke-width="2" stroke-linecap="round" stroke-linejoin="round"/>
</svg>
