<svg width="54" height="54" viewBox="0 0 54 54" fill="none" xmlns="http://www.w3.org/2000/svg">
<circle cx="27" cy="27" r="27" fill="#FF6B6B"/>
<path d="M27.5 45C8.50878 36.6 10.8827 20.4999 14.4435 13.4998C16.0261 13.4998 18.503 13.8383 21.5652 12.3333C23.9391 11.1667 25.1261 10 27.5 10C29.8739 10 31.0609 11.1667 33.4348 12.3333C36.497 13.8383 38.9739 13.4998 40.5565 13.4998C44.1173 20.4999 46.4912 36.6 27.5 45Z" stroke="white" stroke-width="2" stroke-linecap="round" stroke-linejoin="round"/>
<path d="M36 28.5C34.9234 31.6939 31.84 34 28.2043 34C23.6732 34 20 30.4183 20 26C20 21.5817 23.6732 18 28.2043 18C31.84 18 34.9234 20.3061 36 23.5" stroke="white" stroke-width="2" stroke-linecap="round"/>
<path d="M24 26L27.7333 29L32 24" stroke="white" stroke-width="2" stroke-linecap="round" stroke-linejoin="round"/>
</svg>
