<svg width="29" height="29" viewBox="0 0 29 29" fill="none" xmlns="http://www.w3.org/2000/svg">
<circle cx="14.5" cy="14.5" r="14.5" fill="#FF8800"/>
<path d="M16.02 22C15.8867 22 15.7733 21.96 15.68 21.88C15.6 21.7867 15.56 21.6733 15.56 21.54V18.66H9.08C8.94667 18.66 8.83333 18.62 8.74 18.54C8.66 18.4467 8.62 18.3333 8.62 18.2V17.4C8.62 17.3467 8.63333 17.2667 8.66 17.16C8.7 17.04 8.76 16.92 8.84 16.8L14.84 8.34C15 8.11333 15.2467 8 15.58 8H17.02C17.1533 8 17.26 8.04667 17.34 8.14C17.4333 8.22 17.48 8.32667 17.48 8.46V16.92H19.28C19.4267 16.92 19.54 16.9667 19.62 17.06C19.7133 17.14 19.76 17.2467 19.76 17.38V18.2C19.76 18.3333 19.7133 18.4467 19.62 18.54C19.54 18.62 19.4333 18.66 19.3 18.66H17.48V21.54C17.48 21.6733 17.4333 21.7867 17.34 21.88C17.26 21.96 17.1533 22 17.02 22H16.02ZM10.76 16.96H15.58V10.1L10.76 16.96Z" fill="white"/>
</svg>
