<svg width="29" height="29" viewBox="0 0 29 29" fill="none" xmlns="http://www.w3.org/2000/svg">
<circle cx="14.5" cy="14.5" r="14.5" fill="#14B061"/>
<path d="M14.96 22.2C14.12 22.2 13.3867 22.1 12.76 21.9C12.1333 21.6867 11.6067 21.4067 11.18 21.06C10.7533 20.7133 10.4267 20.3333 10.2 19.92C9.98667 19.5067 9.87333 19.08 9.86 18.64C9.86 18.52 9.9 18.4267 9.98 18.36C10.06 18.2933 10.16 18.26 10.28 18.26H11.26C11.38 18.26 11.4867 18.2867 11.58 18.34C11.6733 18.3933 11.7533 18.5067 11.82 18.68C11.9533 19.16 12.18 19.5333 12.5 19.8C12.8333 20.0667 13.2133 20.2533 13.64 20.36C14.08 20.4533 14.52 20.5 14.96 20.5C15.88 20.5 16.6267 20.28 17.2 19.84C17.7733 19.4 18.06 18.7533 18.06 17.9C18.06 17.0333 17.8 16.4133 17.28 16.04C16.76 15.6667 16.04 15.48 15.12 15.48H13.22C13.0867 15.48 12.9733 15.44 12.88 15.36C12.8 15.28 12.76 15.1667 12.76 15.02V14.48C12.76 14.36 12.78 14.26 12.82 14.18C12.8733 14.0867 12.9267 14.0067 12.98 13.94L16.86 9.7H10.96C10.8267 9.7 10.7133 9.66 10.62 9.58C10.54 9.5 10.5 9.38667 10.5 9.24V8.48C10.5 8.33333 10.54 8.22 10.62 8.14C10.7133 8.04667 10.8267 8 10.96 8H18.94C19.0867 8 19.2 8.04667 19.28 8.14C19.3733 8.22 19.42 8.33333 19.42 8.48V9.2C19.42 9.29333 19.3933 9.38 19.34 9.46C19.3 9.52667 19.2533 9.59333 19.2 9.66L15.34 13.96L15.66 13.98C16.54 14.0067 17.3067 14.1667 17.96 14.46C18.6267 14.7533 19.14 15.1933 19.5 15.78C19.8733 16.3533 20.06 17.08 20.06 17.96C20.06 18.8533 19.84 19.62 19.4 20.26C18.96 20.8867 18.3533 21.3667 17.58 21.7C16.8067 22.0333 15.9333 22.2 14.96 22.2Z" fill="white"/>
</svg>
