<svg width="29" height="29" viewBox="0 0 29 29" fill="none" xmlns="http://www.w3.org/2000/svg">
<circle cx="14.5" cy="14.5" r="14.5" fill="#D71A37"/>
<path d="M14.52 22C14.3867 22 14.2733 21.96 14.18 21.88C14.1 21.7867 14.06 21.6733 14.06 21.54V10.34L10.74 12.9C10.6333 12.98 10.52 13.0133 10.4 13C10.28 12.9867 10.18 12.9267 10.1 12.82L9.58 12.16C9.5 12.04 9.46667 11.92 9.48 11.8C9.50667 11.68 9.57333 11.58 9.68 11.5L14.04 8.14C14.1333 8.07333 14.22 8.03333 14.3 8.02C14.38 8.00667 14.4667 8 14.56 8H15.58C15.7133 8 15.82 8.04667 15.9 8.14C15.98 8.22 16.02 8.32667 16.02 8.46V21.54C16.02 21.6733 15.98 21.7867 15.9 21.88C15.82 21.96 15.7133 22 15.58 22H14.52Z" fill="white"/>
</svg>
