<svg width="29" height="29" viewBox="0 0 29 29" fill="none" xmlns="http://www.w3.org/2000/svg">
<circle cx="14.5" cy="14.5" r="14.5" fill="#0D3DD8"/>
<path d="M10.44 22C10.3067 22 10.1933 21.96 10.1 21.88C10.02 21.7867 9.98 21.6733 9.98 21.54V20.9C9.98 20.78 10.0133 20.6467 10.08 20.5C10.1467 20.3533 10.28 20.1933 10.48 20.02L14.72 15.78C15.4 15.2067 15.9333 14.72 16.32 14.32C16.72 13.9067 17 13.5133 17.16 13.14C17.3333 12.7667 17.42 12.38 17.42 11.98C17.42 11.22 17.2067 10.62 16.78 10.18C16.3533 9.72667 15.72 9.5 14.88 9.5C14.3467 9.5 13.8867 9.61333 13.5 9.84C13.1133 10.0533 12.8067 10.3533 12.58 10.74C12.3667 11.1133 12.2267 11.54 12.16 12.02C12.1333 12.1933 12.06 12.3133 11.94 12.38C11.8333 12.4467 11.7333 12.48 11.64 12.48H10.6C10.48 12.48 10.38 12.4467 10.3 12.38C10.22 12.3 10.18 12.2067 10.18 12.1C10.1933 11.5933 10.3 11.0867 10.5 10.58C10.7 10.06 10.9933 9.59333 11.38 9.18C11.78 8.76667 12.2667 8.43333 12.84 8.18C13.4267 7.91333 14.1067 7.78 14.88 7.78C15.9333 7.78 16.7933 7.97333 17.46 8.36C18.14 8.73333 18.64 9.23333 18.96 9.86C19.28 10.4867 19.44 11.1733 19.44 11.92C19.44 12.5067 19.34 13.0467 19.14 13.54C18.94 14.02 18.6467 14.4933 18.26 14.96C17.8867 15.4133 17.42 15.88 16.86 16.36L13.02 20.26H19.26C19.4067 20.26 19.52 20.3 19.6 20.38C19.6933 20.46 19.74 20.5733 19.74 20.72V21.54C19.74 21.6733 19.6933 21.7867 19.6 21.88C19.52 21.96 19.4067 22 19.26 22H10.44Z" fill="white"/>
</svg>
