<svg width="29" height="29" viewBox="0 0 29 29" fill="none" xmlns="http://www.w3.org/2000/svg">
<circle cx="14.5" cy="14.5" r="14.5" fill="#6D0A77"/>
<path d="M14.84 22.2C13.7867 22.2 12.8933 22.02 12.16 21.66C11.44 21.2867 10.8867 20.8067 10.5 20.22C10.1267 19.6333 9.92667 19.0133 9.9 18.36C9.88667 18.24 9.92 18.1467 10 18.08C10.08 18.0133 10.18 17.98 10.3 17.98H11.38C11.5 17.98 11.6067 18.0067 11.7 18.06C11.7933 18.1133 11.8667 18.2267 11.92 18.4C12.0533 18.8933 12.2667 19.3 12.56 19.62C12.8667 19.9267 13.2133 20.1533 13.6 20.3C14 20.4333 14.4133 20.5 14.84 20.5C15.4133 20.5 15.9333 20.3867 16.4 20.16C16.88 19.92 17.26 19.5733 17.54 19.12C17.82 18.6533 17.96 18.0933 17.96 17.44C17.96 16.84 17.82 16.3267 17.54 15.9C17.2733 15.46 16.9 15.1267 16.42 14.9C15.9533 14.66 15.4267 14.54 14.84 14.54C14.4 14.54 14.04 14.5933 13.76 14.7C13.48 14.8067 13.24 14.9333 13.04 15.08C12.8533 15.2267 12.68 15.3533 12.52 15.46C12.3733 15.5667 12.2067 15.62 12.02 15.62H10.98C10.86 15.62 10.7533 15.58 10.66 15.5C10.5667 15.4067 10.5267 15.3 10.54 15.18L11.18 8.5C11.1933 8.34 11.24 8.22 11.32 8.14C11.4133 8.04667 11.5333 8 11.68 8H18.66C18.7933 8 18.9 8.04667 18.98 8.14C19.0733 8.22 19.12 8.32667 19.12 8.46V9.24C19.12 9.38667 19.0733 9.5 18.98 9.58C18.9 9.66 18.7933 9.7 18.66 9.7H12.9L12.52 13.64C12.7067 13.52 13.0067 13.38 13.42 13.22C13.8333 13.0467 14.4 12.96 15.12 12.96C15.7733 12.96 16.3867 13.06 16.96 13.26C17.5467 13.46 18.0667 13.7533 18.52 14.14C18.9733 14.5267 19.3267 15 19.58 15.56C19.8333 16.1067 19.96 16.74 19.96 17.46C19.96 18.4733 19.7333 19.3333 19.28 20.04C18.84 20.7467 18.2333 21.2867 17.46 21.66C16.7 22.02 15.8267 22.2 14.84 22.2Z" fill="white"/>
</svg>
