<svg width="246" height="50" viewBox="0 0 246 50" fill="none" xmlns="http://www.w3.org/2000/svg">
<path d="M19.0979 5.8541C19.6966 4.01148 22.3034 4.01148 22.9021 5.8541L26.1638 15.8926C26.4316 16.7167 27.1995 17.2746 28.0659 17.2746H38.621C40.5585 17.2746 41.364 19.7538 39.7966 20.8926L31.2574 27.0967C30.5564 27.606 30.2631 28.5088 30.5308 29.3328L33.7925 39.3713C34.3912 41.2139 32.2823 42.7462 30.7148 41.6074L22.1756 35.4033C21.4746 34.894 20.5254 34.894 19.8244 35.4033L11.2852 41.6074C9.71774 42.7462 7.60878 41.2139 8.20748 39.3713L11.4692 29.3328C11.7369 28.5088 11.4436 27.606 10.7426 27.0967L2.20338 20.8926C0.635953 19.7538 1.44151 17.2746 3.37895 17.2746H13.9341C14.8005 17.2746 15.5684 16.7167 15.8362 15.8926L19.0979 5.8541Z" fill="#FFE100"/>
<path d="M69.0979 5.8541C69.6966 4.01148 72.3034 4.01148 72.9021 5.8541L76.1638 15.8926C76.4316 16.7167 77.1995 17.2746 78.0659 17.2746H88.621C90.5585 17.2746 91.364 19.7538 89.7966 20.8926L81.2574 27.0967C80.5564 27.606 80.2631 28.5088 80.5308 29.3328L83.7925 39.3713C84.3912 41.2139 82.2823 42.7462 80.7148 41.6074L72.1756 35.4033C71.4746 34.894 70.5254 34.894 69.8244 35.4033L61.2852 41.6074C59.7177 42.7462 57.6088 41.2139 58.2075 39.3713L61.4692 29.3328C61.7369 28.5088 61.4436 27.606 60.7426 27.0967L52.2034 20.8926C50.636 19.7538 51.4415 17.2746 53.379 17.2746H63.9341C64.8005 17.2746 65.5684 16.7167 65.8362 15.8926L69.0979 5.8541Z" fill="#FFE100"/>
<path d="M119.098 5.8541C119.697 4.01148 122.303 4.01148 122.902 5.8541L126.164 15.8926C126.432 16.7167 127.199 17.2746 128.066 17.2746H138.621C140.558 17.2746 141.364 19.7538 139.797 20.8926L131.257 27.0967C130.556 27.606 130.263 28.5088 130.531 29.3328L133.793 39.3713C134.391 41.2139 132.282 42.7462 130.715 41.6074L122.176 35.4033C121.475 34.894 120.525 34.894 119.824 35.4033L111.285 41.6074C109.718 42.7462 107.609 41.2139 108.207 39.3713L111.469 29.3328C111.737 28.5088 111.444 27.606 110.743 27.0967L102.203 20.8926C100.636 19.7538 101.442 17.2746 103.379 17.2746H113.934C114.801 17.2746 115.568 16.7167 115.836 15.8926L119.098 5.8541Z" fill="#FFE100"/>
<path d="M169.098 5.8541C169.697 4.01148 172.303 4.01148 172.902 5.8541L176.164 15.8926C176.432 16.7167 177.199 17.2746 178.066 17.2746H188.621C190.558 17.2746 191.364 19.7538 189.797 20.8926L181.257 27.0967C180.556 27.606 180.263 28.5088 180.531 29.3328L183.793 39.3713C184.391 41.2139 182.282 42.7462 180.715 41.6074L172.176 35.4033C171.475 34.894 170.525 34.894 169.824 35.4033L161.285 41.6074C159.718 42.7462 157.609 41.2139 158.207 39.3713L161.469 29.3328C161.737 28.5088 161.444 27.606 160.743 27.0967L152.203 20.8926C150.636 19.7538 151.442 17.2746 153.379 17.2746H163.934C164.801 17.2746 165.568 16.7167 165.836 15.8926L169.098 5.8541Z" fill="#FFE100"/>
<path d="M219.098 5.8541C219.697 4.01148 222.303 4.01148 222.902 5.8541L226.164 15.8926C226.432 16.7167 227.199 17.2746 228.066 17.2746H238.621C240.558 17.2746 241.364 19.7538 239.797 20.8926L231.257 27.0967C230.556 27.606 230.263 28.5088 230.531 29.3328L233.793 39.3713C234.391 41.2139 232.282 42.7462 230.715 41.6074L222.176 35.4033C221.475 34.894 220.525 34.894 219.824 35.4033L211.285 41.6074C209.718 42.7462 207.609 41.2139 208.207 39.3713L211.469 29.3328C211.737 28.5088 211.444 27.606 210.743 27.0967L202.203 20.8926C200.636 19.7538 201.442 17.2746 203.379 17.2746H213.934C214.801 17.2746 215.568 16.7167 215.836 15.8926L219.098 5.8541Z" fill="#FFE100"/>
</svg>
